<svg width="960" height="510" viewBox="0 0 960 510" fill="none" xmlns="http://www.w3.org/2000/svg">
<path d="M318 245.166H182.2L159.6 182.819L135.9 245.166H0.199951L58.2999 126.616L0.899951 8.96167H136.6L159.2 71.8215L181.2 8.96167H317.3L260.2 125.72L318 245.166Z" fill="#FBBC02"/>
<path d="M620.1 136.346V245.038H563L515 182.691C501.8 224.17 464.5 254 400.1 254C334 254 312 225.963 312 189.348C312 144.795 337.4 115.35 450.5 107.412L492.3 104.34C490.9 92.3055 484.6 86.9284 468.3 86.9284C451.9 86.9284 447.4 91.7933 444.3 98.4506H314.8C321.8 48.1371 358.3 0 469.7 0C583.9 0 620.1 45.9607 620.1 136.346ZM493.7 142.235L471.1 144.411C447.1 147.1 439.4 152.477 439.4 160.03C439.4 165.407 442.9 169.888 454.4 169.888C481.9 169.76 493.7 154.653 493.7 142.235Z" fill="#FBBC02"/>
<path d="M816.7 245.166L783.3 161.438L770.1 182.306V245.166H644.1V8.96167H770.1V92.3054L811.9 8.96168H958.4L899.9 112.277L959.8 245.038H816.7V245.166Z" fill="#FBBC02"/>
<path d="M167.3 262.5C272.2 262.5 306.2 296.5 306.2 355.6C306.2 416.3 272.2 450.3 167.3 450.3H121.8V503.4H0V262.5H167.3ZM162.4 371.7C176.6 371.7 181.5 366.7 181.5 358.5C181.5 350.3 176.5 345.3 162.4 345.3H121.8V371.7H162.4Z" fill="#FBBC02"/>
<path d="M491.4 262.5H626.4L542.2 425.5C516.5 476 480.2 510 398 510C365 510 338.9 506.4 325.1 503.4V414.6C332 415.6 342.9 416.6 349.2 416.6C363.4 416.6 366.4 414 370 408.7L288.5 262.5H426.8L459.5 349.6L491.4 262.5Z" fill="#FBBC02"/>
<path d="M604.9 376.7C604.9 308.4 657.4 255.9 773.9 255.9C887.8 255.9 935.9 300.1 942.2 372.4H810.5C807.5 361.5 798 351.6 773.5 351.6C747.4 351.6 735.2 364.1 735.2 381.6V384.2C735.2 401.7 747.4 414.2 773.5 414.2C797.9 414.2 807.5 404.3 810.5 393.4H942.2C935.9 465.8 887.7 510 773.9 510C657.4 510 604.9 457.5 604.9 389.2V376.7Z" fill="#FBBC02"/>
</svg>
